<svg xmlns="http://www.w3.org/2000/svg" width="269.292" height="269.292" viewBox="0 0 269.292 269.292"><g fill="#FFF"><path d="M168.171 136.853c-10.08 0-12.06 16.561-12.06 23.4 0 6.479 2.34 21.96 11.34 21.96 10.26 0 11.52-17.28 11.52-24.12 0-6.66-1.619-21.24-10.8-21.24z"/><path d="M134.646 21.26c-61.554 0-111.648 49.049-113.339 110.194h43.728v23.94H23.161c9.749 52.712 55.951 92.638 111.485 92.638 62.622 0 113.386-50.765 113.386-113.386 0-62.622-50.764-113.386-113.386-113.386zm-22.634 181.653h-26.1V90.593h-12.96v-23.4h39.06v135.72zm55.079 2.16c-27 0-37.081-23.939-37.081-47.7 0-24.66 9-45.359 19.26-67.14l11.16-23.04h25.921l-25.92 52.92.359.36c5.04-4.5 9.721-7.38 16.92-7.38 20.521 0 27.36 25.74 27.36 42.121 0 24.299-9.54 49.859-37.979 49.859z"/></g></svg>