<svg xmlns="http://www.w3.org/2000/svg" width="269.292" height="269.292" viewBox="0 0 269.292 269.292"><path fill="#FFF" d="M134.646 21.26c-61.554 0-111.648 49.049-113.339 110.194h43.728v23.94H23.161c9.749 52.712 55.951 92.638 111.485 92.638 62.622 0 113.386-50.765 113.386-113.386 0-62.622-50.764-113.386-113.386-113.386zm-22.634 181.653h-26.1V90.593h-12.96v-23.4h39.06v135.72zm89.998-23.399v23.399h-71.28l30.6-56.159c7.021-12.96 17.46-31.32 17.46-46.26 0-7.02-2.16-16.74-10.8-16.74-10.262 0-10.8 14.58-10.8 21.96l.358 8.64H132.71l-.36-7.38c0-25.2 7.2-42.12 35.458-42.12 22.5 0 36.541 11.34 36.541 34.74 0 13.86-4.859 24.84-11.159 36.899l-22.681 43.021h31.501z"/></svg>