<svg xmlns="http://www.w3.org/2000/svg" width="269.292" height="269.292" viewBox="0 0 269.292 269.292"><g fill="#FFF"><path d="M134.646 21.26c-61.554 0-111.648 49.049-113.339 110.194h43.728v23.94H23.161c9.749 52.712 55.951 92.638 111.485 92.638 62.622 0 113.386-50.765 113.386-113.386 0-62.622-50.764-113.386-113.386-113.386zm-22.634 181.653h-26.1V90.593h-12.96v-23.4h39.06v135.72zm55.439 2.161c-32.58 0-38.16-46.08-38.16-70.021s5.58-70.02 38.16-70.02 38.16 46.08 38.16 70.02c0 23.94-5.58 70.021-38.16 70.021z"/><path d="M167.451 89.513c-13.321 0-12.062 36.72-12.062 45.54 0 8.819-1.26 45.54 12.062 45.54s12.061-36.721 12.061-45.54c0-8.82 1.26-45.54-12.061-45.54z"/></g></svg>