<svg xmlns="http://www.w3.org/2000/svg" width="269.292" height="269.292" viewBox="0 0 269.292 269.292"><g fill="#FFF"><path d="M167.091 115.793c8.279 0 8.279-10.26 8.279-15.3 0-4.86-.9-14.4-8.279-14.4-6.479 0-7.381 9.36-7.381 14.22 0 5.22.721 15.48 7.381 15.48zM167.272 142.794c-9.182-.001-11.161 12.6-11.161 19.619 0 7.021 1.979 19.261 11.34 19.261 9.18 0 11.52-12.601 11.52-19.261 0-6.659-2.879-19.619-11.699-19.619z"/><path d="M134.646 21.26c-61.554 0-111.648 49.049-113.339 110.194h43.728v23.94H23.161c9.749 52.712 55.951 92.638 111.485 92.638 62.622 0 113.386-50.765 113.386-113.386 0-62.622-50.764-113.386-113.386-113.386zm-22.634 181.653h-26.1V90.593h-12.96v-23.4h39.06v135.72zm55.619 2.161c-22.68 0-39.06-16.92-39.06-39.24 0-17.46 6.661-30.42 23.581-36v-.36c-12.24-4.14-18.541-15.84-18.541-28.62 0-19.98 13.32-35.82 34.02-35.82 20.521 0 33.84 15.84 33.84 35.82 0 12.78-6.119 24.3-18.539 28.8v.18c16.92 5.4 23.58 18.9 23.58 36 0 22.32-16.201 39.24-38.881 39.24z"/></g></svg>