<svg width="104" height="60" viewBox="0 0 104 60" xmlns="http://www.w3.org/2000/svg"><defs><mask id="a"><path fill="#fff" d="M0 0h104v60H0z"/><path d="M61.75 22.944h12.37v3.312h-4.023v9.712h-4.323v-9.712H61.75v-3.312m17.844 0l2.386 8.28 2.383-8.28h4.77l-4.918 13.024H79.67l-4.92-13.024h4.844"/></mask></defs><g fill-rule="evenodd" fill="#FFF"><path d="M56.344.46c2.325.744 4.472 1.98 6.638 3.09 11.286 5.925 22.592 11.814 33.88 17.74 2.29 1.235 4.757 2.435 6.35 4.616 1.036 1.345 1.34 3.163 1.072 4.816-.5 2.563-2.61 4.345-4.722 5.6-2.486 1.417-5.044 2.726-7.585 4.052-10.214 5.343-20.392 10.687-30.59 16.014-2.27 1.125-4.578 2.47-7.153 2.617-1.092-.055-2.255-.308-3.04-1.145-.914-.89-1.28-1.822-1.53-3.426-.186-1.205-.107-3.31.162-4.51.733-3.49 4.193-11.658 4.568-12.803.895-2.743 1.307-4.947 1.432-8.164.072-1.845-.412-3.958-1.003-5.684-1.358-4.29-3.165-7.828-4.417-12.136-.5-1.727-.787-3.433-.697-5.25-.056-1.655.76-4.542 2.125-5.17C53.825-.44 54.878.06 56.345.46" mask="url(#a)"/><path d="M3.962 29.512c0 2.22.63 3.66 2.49 3.66 1.836 0 2.464-1.927 2.464-3.66 0-1.612-.628-3.394-2.44-3.394-1.112 0-2.514.782-2.514 3.394zM0 23.312h3.915v1.463h.047c.798-1.196 2.006-1.83 3.456-1.83 3.94 0 5.606 3.417 5.606 6.98 0 3.297-1.74 6.422-5.292 6.422-1.547 0-2.73-.586-3.577-1.733h-.048v5.613H0V23.31zm14.625-4.465h4.108v17.43h-4.108v-17.43zM26.95 33.784c1.956 0 2.61-1.124 2.512-3.736-.58.367-1.644.44-2.537.684-.918.22-1.692.61-1.692 1.61 0 1.026.798 1.442 1.716 1.442zm-5.318-6.567c.072-1.66.846-2.734 1.957-3.393 1.11-.635 2.56-.88 3.986-.88 2.972 0 5.848.66 5.848 4.248v5.54c0 1.076 0 2.247.483 3.248h-4.132c-.145-.39-.194-.78-.24-1.196-1.064 1.123-2.636 1.563-4.134 1.563-2.39 0-4.276-1.22-4.276-3.833 0-4.125 4.446-3.808 7.298-4.395.7-.148 1.087-.39 1.087-1.173 0-.952-1.136-1.32-1.98-1.32-1.138 0-1.863.514-2.056 1.59H21.63zm20.878 9.52c-.99 2.782-2.465 3.124-5.244 3.124h-1.933v-3.367h1.425c.943 0 1.644-.537 1.644-1.415 0-.684-.798-2.636-1.04-3.32l-3.237-8.813h4.35l2.368 8.25h.047l2.37-8.25h4.204L42.51 36.737"/></g></svg>