<svg width="104" height="60" viewBox="0 0 104 60" xmlns="http://www.w3.org/2000/svg"><title>logo</title><g fill="none" fill-rule="evenodd"><path d="M56.344.46c2.325.744 4.472 1.98 6.638 3.089 11.286 5.926 22.592 11.815 33.879 17.74 2.29 1.236 4.758 2.436 6.35 4.617 1.037 1.345 1.342 3.163 1.073 4.816-.5 2.563-2.61 4.345-4.722 5.6-2.486 1.417-5.044 2.726-7.585 4.052-10.214 5.343-20.392 10.687-30.589 16.014-2.27 1.125-4.58 2.47-7.154 2.617-1.092-.055-2.255-.308-3.041-1.145-.913-.891-1.28-1.822-1.53-3.426-.185-1.205-.106-3.31.163-4.511.733-3.49 4.193-11.657 4.568-12.802.895-2.745 1.307-4.95 1.432-8.166.072-1.845-.412-3.958-1.003-5.684-1.358-4.29-3.165-7.829-4.417-12.137-.501-1.727-.787-3.433-.697-5.25-.054-1.655.762-4.542 2.127-5.17 1.988-1.155 3.042-.655 4.508-.255" fill="#FFF"/><path d="M61.75 22.944h12.37v3.312h-4.023v9.712h-4.323v-9.712H61.75v-3.312M79.594 22.944l2.386 8.28 2.383-8.28h4.77l-4.918 13.024h-4.546L74.75 22.944h4.844" fill="#222"/><path d="M3.962 29.512c0 2.22.629 3.66 2.49 3.66 1.836 0 2.464-1.927 2.464-3.66 0-1.612-.628-3.394-2.44-3.394-1.112 0-2.514.782-2.514 3.394zM0 23.31h3.915v1.464h.047c.798-1.196 2.006-1.83 3.456-1.83 3.939 0 5.606 3.417 5.606 6.981 0 3.296-1.74 6.42-5.292 6.42-1.547 0-2.73-.585-3.577-1.732h-.048v5.613H0V23.311zM14.625 18.847h4.108v17.43h-4.108v-17.43zM26.949 33.784c1.957 0 2.61-1.124 2.513-3.736-.58.367-1.644.44-2.537.684-.918.22-1.692.61-1.692 1.61 0 1.026.798 1.442 1.716 1.442zm-5.317-6.567c.072-1.66.846-2.734 1.957-3.393 1.112-.635 2.562-.88 3.988-.88 2.972 0 5.848.66 5.848 4.248v5.541c0 1.075 0 2.246.483 3.247h-4.132c-.145-.39-.194-.781-.241-1.196-1.063 1.123-2.635 1.563-4.133 1.563-2.392 0-4.277-1.221-4.277-3.833 0-4.125 4.446-3.808 7.298-4.395.7-.146 1.087-.39 1.087-1.17 0-.953-1.135-1.32-1.981-1.32-1.136 0-1.861.513-2.054 1.588h-3.843zM42.51 36.737c-.991 2.782-2.465 3.124-5.244 3.124h-1.933v-3.369h1.425c.943 0 1.644-.537 1.644-1.415 0-.684-.798-2.636-1.039-3.32l-3.238-8.813h4.349l2.369 8.251h.047l2.37-8.25h4.204L42.51 36.736" fill="#FFF"/></g></svg>