<svg width="64" height="64" viewBox="0 0 64 64" xmlns="http://www.w3.org/2000/svg"><title>play</title><path d="M9.423.498c2.545.808 4.895 2.149 7.266 3.351 12.354 6.428 24.729 12.815 37.084 19.242 2.507 1.34 5.208 2.642 6.95 5.008 1.136 1.458 1.47 3.43 1.176 5.224-.548 2.78-2.858 4.712-5.17 6.073-2.721 1.537-5.52 2.957-8.302 4.395-11.18 5.796-22.321 11.593-33.483 17.37-2.485 1.22-5.012 2.68-7.831 2.839-1.195-.06-2.468-.335-3.328-1.243-1-.966-1.402-1.976-1.674-3.716-.204-1.306-.117-3.59.178-4.892.802-3.785 4.59-12.644 5-13.886.98-2.977 1.43-5.368 1.567-8.857.078-2.001-.45-4.293-1.097-6.166-1.487-4.653-3.465-8.49-4.835-13.163-.55-1.873-.862-3.724-.764-5.695C2.1 4.587 2.995 1.456 4.489.774 6.664-.478 7.818.064 9.423.498" fill="#FFF" fill-rule="evenodd"/></svg>