<svg width="107" height="32" viewBox="0 0 107 32" xmlns="http://www.w3.org/2000/svg"><title>1-star</title><g fill="none" fill-rule="evenodd"><path fill="#FEAE1B" d="M16.042 26.534L6.127 32l1.894-11.578L0 12.222l11.085-1.688L16.042 0l4.957 10.534 11.084 1.689-8.02 8.2L25.955 32z"/><path fill="#E1E1E1" d="M52.708 26.534L42.794 32l1.893-11.578-8.02-8.2 11.084-1.688L52.708 0l4.957 10.534 11.085 1.689-8.02 8.2L62.622 32z"/><path fill="#E2E2E2" d="M90.903 26.534L80.988 32l1.894-11.578-8.02-8.2 11.084-1.688L90.903 0l4.957 10.534 11.084 1.689-8.02 8.2L100.817 32z"/></g></svg>