<svg width="69" height="52" viewBox="0 0 69 52" xmlns="http://www.w3.org/2000/svg"><title>Slice 1</title><g fill="none" fill-rule="evenodd"><path fill="#D8D8D8" d="M0 0h69v52H0z"/><path d="M49.486 18.67H38.144l6.86-6.408a1.827 1.827 0 0 0 0-2.703c-.795-.746-2.1-.744-2.896 0l-6.457 6.026c-.797.743-2.1.743-2.897 0L26.3 9.559c-.796-.744-2.1-.744-2.896 0a1.828 1.828 0 0 0 0 2.703l6.861 6.408H18.92c-.48 0-.873.366-.873.816v21.198c0 .448.392.816.873.816h30.567c.484 0 .876-.368.876-.816V19.486c0-.45-.392-.816-.876-.816zm-3.493 17.937c0 .448-.391.814-.872.814H23.288c-.48 0-.877-.366-.877-.814V23.563c0-.45.396-.818.877-.818H45.12c.48 0 .872.368.872.818v13.044z" fill="#B4B4B4"/></g></svg>