<svg width="32" height="32" viewBox="0 0 32 32" xmlns="http://www.w3.org/2000/svg"><title>Slice 1</title><defs><linearGradient x1="50%" y1="0%" x2="50%" y2="100%" id="a"><stop stop-color="#FDFDFD" offset="0%"/><stop stop-color="#ECECEC" offset="100%"/></linearGradient></defs><g fill="none" fill-rule="evenodd"><path fill="url(#a)" d="M0 0h32v32H0z"/><path d="M2 29.463s.164-1.557 2.031-2.04c0 0 3.007-1.102 5.362-2.132 1.218-.532 1.48-.852 2.709-1.397 0 0 .128-.634.082-1.01h.961s.22.128 0-1.361c0 0-1.171-.312-1.226-2.683 0 0-.88.297-.933-1.14-.037-.974-.787-1.82.293-2.518l-.55-1.489s-1.097-6.01 2.06-5.128c-1.332-1.599 7.548-3.197 8.125 1.875 0 0 .411 2.74 0 4.614 0 0 1.297-.151.43 2.353 0 0-.476 1.8-1.208 1.396 0 0 .12 2.28-1.034 2.666 0 0 .082 1.213.082 1.295l1.099.166s-.166.992.027 1.102c0 0 1.302.896 2.855 1.296 2.992.772 6.533 2.096 6.533 3.254 0 0 .302 1.543.302 3.418H2v-2.537z" fill="#DBDBDB"/></g></svg>