<svg width="33" xmlns="http://www.w3.org/2000/svg" height="22" viewBox="0 0 33 22"><defs><linearGradient id="a" y1="22" gradientUnits="userSpaceOnUse" x2="0"><stop offset="0" stop-color="#1a8b53"/><stop offset=".497" stop-color="#42a1ef"/><stop offset="1" stop-color="#0e368b"/></linearGradient></defs><g fill-rule="evenodd"><path fill="url(#a)" d="M31 0H2a2 2 0 0 0-2 2v18a2 2 0 0 0 2 2h29a2 2 0 0 0 2-2V2a2 2 0 0 0-2-2z"/><path fill="#147a47" d="M31 21H2a2 2 0 0 1-2-2v1a2 2 0 0 0 2 2h29a2 2 0 0 0 2-2v-.999A2 2 0 0 1 31 21z"/><path fill="#fff" d="M26 11h-8v4h8a2 2 0 0 0 0-4zm2-3a2 2 0 0 0-2-2h-8v4h8a2 2 0 0 0 2-2zm-17 2h6.095c-.125-2.469-1.275-4-6.09-4-5.133 0-6.102 1.74-6.102 4.501 0 2.762.875 4.499 6.102 4.499 4.904 0 5.978-1.529 6.091-4H11v-1z"/></g></svg>