<svg width="33" xmlns="http://www.w3.org/2000/svg" height="22" viewBox="0 0 33 22"><g fill-rule="evenodd"><path fill="#4c4578" d="M31 0H2a2 2 0 0 0-2 2v18a2 2 0 0 0 2 2h29a2 2 0 0 0 2-2V2a2 2 0 0 0-2-2z"/><path fill="#d3382d" d="M16.792 5.5A7.962 7.962 0 0 0 11 3a8 8 0 0 0 0 16 7.962 7.962 0 0 0 5.792-2.5H23v-11h-6.208z"/><path fill="#f6b919" d="M22 3a7.967 7.967 0 0 0-5.799 2.5h.676a.597.597 0 0 0 .131.218c.08.091.152.188.227.282H15.76a8.707 8.707 0 0 0-.369.5h2.215c.11.163.218.329.317.5h-2.845c-.093.16-.167.333-.25.5h3.365c.079.163.15.331.219.5h-3.82c-.067.163-.122.332-.178.5h4.178c.054.165.104.331.147.5h-4.473c-.043.163-.067.333-.101.5h4.692c.03.164.05.332.07.5h-4.86c-.022.163-.023.333-.035.5h4.942c.013.166.026.331.026.5h-5c0 .169.015.334.025.5h4.951c-.01.168-.025.335-.047.5h-4.861c.021.169.055.334.086.5h4.704c-.032.169-.076.335-.119.5h-4.473c.043.17.097.335.151.5h4.175c-.057.169-.113.336-.18.5h-3.81c.069.17.145.336.224.5h3.365a8.292 8.292 0 0 1-.271.5h-2.827c.101.174.22.335.333.5h2.178c-.117.172-.24.338-.37.5H15.79c1.46 1.823 3.69 3 6.21 3a8 8 0 0 0 0-16z"/><path fill="#3e414a" d="M17.336 11.365c.001-.676-.411-1.108-1.055-1.11-.786-.002-1.369.768-1.371 1.814-.002.896.453 1.366 1.327 1.369.274.001.534-.039.802-.122l.132-.762a1.811 1.811 0 0 1-.813.191c-.455-.001-.731-.188-.678-.631l1.557.004a3.44 3.44 0 0 0 .099-.753zm-.731.134l-.863-.002c.075-.351.252-.546.501-.545.446.001.366.484.362.547zM8.042 9.602l-.769 2.329L7.247 9.6l-1.13-.002-.623 3.762.735.002.48-2.876.059 2.877.537.001 1.01-2.891-.455 2.893.786.002.615-3.764-1.219-.002zm3.413 1.54c.001-.586-.354-.898-1.03-.899-.29-.001-.549.043-.941.159l-.11.688c.13-.043.448-.141.832-.136.367.001.503.077.503.279a.765.765 0 0 1-.03.199 2.494 2.494 0 0 0-.321-.024c-.872-.002-1.38.432-1.382 1.177-.001.495.29.837.716.838.36.001.625-.118.826-.367l-.017.316.651.001c.02-.23.169-1.182.238-1.625.04-.255.067-.448.065-.606zm-1.437 1.63c-.172 0-.282-.122-.282-.313 0-.31.227-.466.671-.465.058 0 .093.003.175.013-.012.455-.245.766-.564.765zm2.807-1.801c.154 0 .365.019.565.048l.112-.71a5.18 5.18 0 0 0-.691-.062c-.879-.002-1.184.468-1.181 1.033-.001.389.181.655.596.856.317.154.367.2.366.34 0 .19-.141.276-.452.275a2.13 2.13 0 0 1-.703-.122s-.105.675-.111.706c.179.041.339.077.818.093.83.002 1.213-.321 1.215-1.021.001-.421-.158-.668-.553-.854-.33-.156-.366-.191-.366-.334 0-.164.13-.249.385-.248zm2.072.085l.108-.735-.402-.001.092-.463-.781-.002s-.299 1.803-.345 2.09c-.05.324-.115.68-.108.815-.001.436.218.673.618.674.183 0 .351-.029.565-.099l.107-.678a.625.625 0 0 1-.212.028c-.188 0-.271-.069-.27-.228.002-.096.133-.82.226-1.402h.402zm13.458 2.076a.063.063 0 0 0-.025-.053c-.014-.011-.033-.011-.051-.011l-.088-.001v.211h.049v-.083h.035l.029.083h.055l-.039-.093c.024-.007.035-.03.035-.053zm-.06.023c-.01.005-.02.005-.028.005h-.027v-.055h.024c.009 0 .022-.001.032.004.005.005.01.014.01.021a.026.026 0 0 1-.011.025zm-.024-.221a.236.236 0 0 0-.233.24.236.236 0 0 0 .232.239.238.238 0 0 0 .236-.238.238.238 0 0 0-.235-.241zm-.001.421a.18.18 0 0 1-.177-.182c0-.101.081-.183.178-.183.1 0 .179.082.179.184a.181.181 0 0 1-.18.181zm-.747-3.708l-.177 1.087c-.215-.29-.444-.418-.75-.419-.693-.002-1.279.855-1.282 1.874-.001.766.375 1.271.945 1.272.288.001.51-.101.726-.337l-.038.285.744.002.607-3.764h-.775zm-.99 3.055c-.266 0-.4-.203-.4-.604.002-.602.256-1.028.611-1.027.271.001.416.213.414.602 0 .604-.258 1.03-.625 1.029zm-.857-2.375c-.33-.07-.514.119-.756.48.02-.156.055-.308.049-.464l-.723-.001c-.1.947-.277 1.906-.416 2.854l-.035.206.785.002c.285-1.872.354-2.237.795-2.19.071-.382.201-.717.301-.887zm-5.809 1.429c.002-.83.415-1.41 1.002-1.409.217.001.42.061.701.205l.13-.816c-.114-.047-.52-.197-.863-.198-1.04-.002-1.771.938-1.774 2.283-.002 1.002.523 1.626 1.369 1.628.218.001.406-.028.695-.109l.139-.856c-.26.131-.475.191-.667.19-.456-.001-.734-.347-.732-.918zm2.94-1.485c-.292 0-.55.044-.941.16 0 0-.104.638-.11.688.13-.043.448-.141.832-.136.366.001.503.077.503.279a.783.783 0 0 1-.031.199 2.443 2.443 0 0 0-.32-.024c-.871-.002-1.38.432-1.381 1.177-.002.495.289.837.715.838.36.001.625-.118.824-.368l-.016.317.651.001c.02-.23.167-1.182.236-1.625.041-.255.066-.448.064-.606.005-.587-.353-.899-1.026-.9zm-.411 2.531c-.172-.001-.279-.122-.279-.313 0-.31.226-.466.672-.465.056 0 .092.003.175.013-.015.454-.245.766-.568.765zm-3.945-2.009c.02-.156.055-.309.049-.464l-.722-.002c-.103.948-.278 1.907-.417 2.855l-.035.206.786.001c.284-1.871.353-2.236.792-2.189.073-.383.203-.718.303-.887-.33-.071-.515.12-.756.48z"/><path fill="#fff" d="M14.397 10.556l.108-.735-.402-.001.092-.463-.781-.002s-.299 1.803-.345 2.09c-.05.324-.115.68-.108.815-.001.436.218.673.618.674.183 0 .351-.029.565-.099l.107-.678a.625.625 0 0 1-.212.028c-.188 0-.271-.069-.27-.228.002-.096.133-.82.226-1.402h.402zM7.542 9.103l-.769 2.329-.026-2.331-1.13-.002-.623 3.762.735.002.48-2.876.059 2.877.537.001 1.01-2.891-.455 2.893.786.002.615-3.764-1.219-.002zm9.293 1.763c.001-.676-.41-1.108-1.054-1.11-.786-.002-1.369.768-1.371 1.814-.002.896.453 1.366 1.327 1.369.274.001.534-.039.802-.122l.131-.762a1.811 1.811 0 0 1-.813.191c-.455-.001-.731-.188-.678-.631l1.557.004c.069-.308.099-.528.099-.753zm-.73.134l-.863-.002c.075-.351.252-.546.501-.545.446.001.366.484.362.547zm-5.15-.357c.001-.586-.354-.898-1.03-.899-.29-.001-.549.043-.941.159l-.11.688c.13-.043.448-.141.832-.136.367.001.503.077.503.279a.765.765 0 0 1-.03.199 2.494 2.494 0 0 0-.321-.024c-.872-.002-1.38.432-1.382 1.177-.001.495.29.837.716.838.36.001.625-.118.826-.367l-.017.316.651.001c.02-.23.169-1.182.238-1.625.04-.255.067-.448.065-.606zm-1.437 1.63c-.172 0-.282-.122-.282-.313 0-.31.227-.466.671-.465.058 0 .093.003.175.013-.012.455-.245.766-.564.765zm2.807-1.801c.154 0 .365.019.565.048l.112-.71a5.18 5.18 0 0 0-.691-.062c-.879-.002-1.184.468-1.181 1.033-.001.389.181.655.596.856.317.154.367.2.366.34 0 .19-.141.276-.452.275a2.13 2.13 0 0 1-.703-.122s-.105.675-.111.706c.179.041.339.077.818.093.83.002 1.213-.321 1.215-1.021.001-.421-.158-.668-.553-.854-.33-.156-.366-.191-.366-.334 0-.164.13-.249.385-.248zm15.53 2.16a.063.063 0 0 0-.025-.053c-.014-.011-.033-.011-.051-.011l-.088-.001v.211h.049v-.083h.035l.029.083h.055l-.039-.093c.024-.007.035-.03.035-.053zm-.06.023c-.01.005-.02.005-.028.005h-.027v-.055h.024c.009 0 .022-.001.032.004.005.005.01.014.01.021a.026.026 0 0 1-.011.025zm-.772-3.508l-.177 1.087c-.215-.29-.444-.418-.75-.419-.693-.002-1.279.855-1.282 1.874-.001.766.375 1.271.945 1.272.288.001.51-.101.726-.337l-.038.285.744.002.607-3.764h-.775zm-.99 3.055c-.266 0-.4-.203-.4-.604.002-.602.256-1.028.611-1.027.271.001.416.213.414.602 0 .604-.258 1.03-.625 1.029zm1.738.232a.236.236 0 0 0-.233.24.236.236 0 0 0 .232.239.238.238 0 0 0 .236-.238.238.238 0 0 0-.235-.241zm-.001.421a.18.18 0 0 1-.177-.182c0-.101.081-.183.178-.183.1 0 .179.082.179.184a.181.181 0 0 1-.18.181zm-9.819-2.562c.02-.156.055-.309.049-.464l-.722-.002c-.103.948-.278 1.907-.417 2.855l-.036.206.787.001c.284-1.871.353-2.236.792-2.189.073-.383.203-.718.303-.887-.33-.071-.515.12-.756.48zm7.225-.466c-.33-.07-.514.119-.756.48.02-.156.055-.308.049-.464l-.723-.001c-.1.947-.277 1.906-.416 2.854l-.035.206.785.002c.285-1.872.354-2.237.795-2.19.071-.382.201-.717.301-.887zm-2.869-.056c-.292 0-.55.044-.941.16 0 0-.104.638-.11.688.13-.043.448-.141.832-.136.366.001.503.077.503.279a.783.783 0 0 1-.031.199 2.443 2.443 0 0 0-.32-.024c-.871-.002-1.38.432-1.381 1.177-.002.495.289.837.715.838.36.001.625-.118.824-.368l-.016.317.651.001c.02-.23.167-1.182.236-1.625.041-.255.066-.448.064-.606.005-.587-.353-.899-1.026-.9zm-.411 2.531c-.172-.001-.279-.122-.279-.313 0-.31.226-.466.672-.465.056 0 .092.003.175.013-.015.454-.245.766-.568.765zm-2.529-1.046c.002-.83.415-1.41 1.002-1.409.217.001.42.061.701.205l.13-.816c-.114-.047-.52-.197-.863-.198-1.04-.002-1.771.938-1.774 2.283-.002 1.002.523 1.626 1.369 1.628.218.001.406-.028.695-.109l.139-.856c-.26.131-.475.191-.667.19-.456-.001-.734-.347-.732-.918z"/><path fill="#403969" d="M31 21H2a2 2 0 0 1-2-2v1a2 2 0 0 0 2 2h29a2 2 0 0 0 2-2v-.999A2 2 0 0 1 31 21z"/></g></svg>