<svg width="24" height="24" viewBox="0 0 24 24" xmlns="http://www.w3.org/2000/svg"><title>replay</title><g fill="none" fill-rule="evenodd"><circle stroke="#979797" fill-opacity=".8" fill="#222" cx="12" cy="12" r="10"/><path d="M12 .041C5.408.041.044 5.405.044 12.001c0 6.594 5.364 11.958 11.958 11.958 6.593 0 11.956-5.364 11.956-11.958 0-6.596-5.363-11.96-11.956-11.96zm0 21.373c-5.198 0-9.414-4.215-9.414-9.413 0-5.2 4.216-9.415 9.415-9.415a9.414 9.414 0 0 1 0 18.828z" fill="#FFF"/><path d="M12.173 13.42l3.103 2.322c.14.189.497.189.497 0V8.06c0-.19-.357-.19-.496 0l-3.104 2.321V8.061c0-.19-.357-.19-.496 0L6.999 11.56a.609.609 0 0 0 .003.683l4.674 3.499c.14.189.497.189.497 0v-2.323z" fill="#FFF"/></g></svg>