<svg width="24" height="24" viewBox="0 0 24 24" xmlns="http://www.w3.org/2000/svg"><title>trailer 2</title><g fill="none" fill-rule="evenodd"><ellipse fill="#FFF" cx="12.086" cy="12.312" rx="10.211" ry="10.37"/><path d="M11.944.042C5.381.042.042 5.464.042 12.13c0 6.665 5.34 12.088 11.902 12.088 6.563 0 11.9-5.423 11.9-12.088 0-6.667-5.337-12.09-11.9-12.09zm0 21.604c-5.174 0-9.37-4.26-9.37-9.515 0-5.257 4.196-9.517 9.37-9.517 5.175 0 9.37 4.26 9.37 9.517 0 5.255-4.195 9.515-9.37 9.515z" fill="#FFF"/><path d="M9.546 8.166c-.211-.215-.75-.215-.75 0v8.735c0 .215.54.215.752 0l7.06-3.979a.556.556 0 0 0 .004-.777L9.546 8.166z" fill="#222"/></g></svg>