<svg width="33" xmlns="http://www.w3.org/2000/svg" height="22" viewBox="0 0 33 22"><g fill-rule="evenodd"><path fill="#fff" d="M0 6h33v10H0z"/><path fill="#fec911" d="M0 16v4a2 2 0 0 0 2 2h29a2 2 0 0 0 2-2v-4H0z"/><path fill="#e0b213" d="M31 21H2a2 2 0 0 1-2-2v1a2 2 0 0 0 2 2h29a2 2 0 0 0 2-2v-.999A2 2 0 0 1 31 21z"/><g fill="#546fc2"><path d="M31 0H2a2 2 0 0 0-2 2v4h33V2a2 2 0 0 0-2-2zM14.184 8.044l-.973 5.896 1.535.003.973-5.896-1.535-.003zm-2.251-.005l-1.473 4.053-.171-.874v.001l-.511-2.654s-.062-.531-.728-.533l-2.419-.005-.028.1s.74.155 1.604.678l1.323 5.126 1.6.004 2.456-5.892-1.653-.004zm12.256.027l-1.234-.003c-.57-.001-.71.438-.71.438l-2.302 5.453 1.601.003.322-.875 1.952.005.178.876 1.409.003-1.216-5.9zm-1.878 3.807l.813-2.205.449 2.208-1.262-.003zm-4.39-2.184c.001-.667 1.497-.578 2.153-.214l.221-1.267s-.675-.259-1.38-.26c-.762-.002-2.572.327-2.575 1.946-.003 1.523 2.12 1.547 2.118 2.348-.002.8-1.906.652-2.534.146l-.231 1.323s.685.335 1.732.337c1.047.002 2.629-.537 2.633-2.013.005-1.531-2.138-1.679-2.137-2.346z"/></g></g></svg>